<svg width="72" height="65" viewBox="0 0 72 65" xmlns="http://www.w3.org/2000/svg"><title>rb_logo</title><g fill="#FFF" fill-rule="nonzero"><path d="M51.768 24.72c-2.088-.84-4.56 1.344-5.496 3.576-.936 2.232-1.248 6.648-1.248 6.648s1.56 1.032 3.624 1.08c2.496.048 4.152-2.088 4.872-4.248 1.104-3.408.36-6.216-1.752-7.056"/><path d="M53.184 20.544c3.096 0 5.688 2.04 5.664 6.312a17.156 17.156 0 0 1-.408 3.36l12.864-14.4-22.2-4.92-2.112 12.6c1.944-2.112 4.056-2.952 6.192-2.952M39.792 37.272l1.344-8.064L44.4 9.84 0 0c13.224 9.552 22.584 19.536 26.736 32.76l1.992-11.856h4.896l-.912 4.32c1.104-1.848 3.456-4.104 5.568-4.536.408-.072 1.2-.096 1.44-.048l-.864 5.448c-2.112-.312-6.336 1.416-6.936 4.824l-1.488 8.856h-2.088l.144.864c1.032 7.056.768 15-.96 24.144l22.2-24.84h-.048c-4.968.984-9.888-2.664-9.888-2.664"/></g></svg>